<?xml version="1.0" encoding="UTF-8"?>
<!-- Authsphere icon SVG — photo-like polished icon (shield + orbital ring + keyhole) -->
<svg xmlns="http://www.w3.org/2000/svg" width="1024" height="1024" viewBox="0 0 1024 1024" role="img" aria-labelledby="title desc">
  <title id="title">Authsphere app icon</title>
  <desc id="desc">A polished, image-like SVG icon combining a glossy circular background, orbital ring, shield and keyhole — suitable for authentication app branding.</desc>

  <defs>
    <!-- main blue gradient -->
    <radialGradient id="bgGrad" cx="30%" cy="25%" r="80%">
      <stop offset="0%" stop-color="#60a5fa"/>
      <stop offset="45%" stop-color="#3b82f6"/>
      <stop offset="100%" stop-color="#0369a1"/>
    </radialGradient>

    <!-- glass highlight -->
    <linearGradient id="glass" x1="0" x2="1">
      <stop offset="0%" stop-color="#ffffff" stop-opacity="0.35"/>
      <stop offset="100%" stop-color="#ffffff" stop-opacity="0.03"/>
    </linearGradient>

    <!-- subtle vignette -->
    <radialGradient id="vignette" cx="50%" cy="50%" r="75%">
      <stop offset="60%" stop-color="#000000" stop-opacity="0"/>
      <stop offset="100%" stop-color="#000000" stop-opacity="0.18"/>
    </radialGradient>

    <!-- inner shadow for shield -->
    <filter id="innerShadow" x="-50%" y="-50%" width="200%" height="200%">
      <feOffset dx="0" dy="6" result="off"/>
      <feGaussianBlur in="off" stdDeviation="10" result="blur"/>
      <feComposite in="SourceGraphic" in2="blur" operator="arithmetic" k2="-1" k3="1" result="innershadow"/>
    </filter>

    <!-- outer shadow for overall icon -->
    <filter id="drop" x="-30%" y="-30%" width="160%" height="160%">
      <feDropShadow dx="0" dy="22" stdDeviation="28" flood-color="#04263a" flood-opacity="0.28"/>
    </filter>

    <!-- ring glow -->
    <filter id="ringGlow" x="-100%" y="-100%" width="300%" height="300%">
      <feGaussianBlur stdDeviation="18" result="g"/>
      <feMerge><feMergeNode in="g"/><feMergeNode in="SourceGraphic"/></feMerge>
    </filter>

    <!-- small sheen mask -->
    <mask id="sheenMask">
      <rect x="0" y="0" width="100%" height="100%" fill="white"/>
      <ellipse cx="380" cy="220" rx="300" ry="140" fill="black"/>
    </mask>
  </defs>

  <!-- outer soft background with drop shadow -->
  <g filter="url(#drop)">
    <circle cx="512" cy="512" r="460" fill="url(#bgGrad)" />
  </g>

  <!-- subtle glass highlight & vignette -->
  <rect x="72" y="72" width="880" height="880" rx="440" fill="url(#glass)" opacity="0.28"/>
  <rect x="72" y="72" width="880" height="880" rx="440" fill="url(#vignette)" opacity="0.9"/>

  <!-- orbital ring (tilted) with glow -->
  <g transform="rotate(-22 512 512)" filter="url(#ringGlow)">
    <ellipse cx="512" cy="512" rx="360" ry="120" fill="none" stroke="#ffffff" stroke-opacity="0.22" stroke-width="18"/>
    <ellipse cx="512" cy="512" rx="360" ry="120" fill="none" stroke="#7dd3fc" stroke-opacity="0.06" stroke-width="6"/>
  </g>

  <!-- small orbiting accent (gives motion) -->
  <g>
    <circle cx="760" cy="300" r="22" fill="#ffffff" opacity="0.95" />
    <circle cx="760" cy="300" r="10" fill="#60a5fa" opacity="0.9" />
    <circle cx="760" cy="300" r="40" fill="#7dd3fc" opacity="0.06" />
  </g>

  <!-- shield with glossy surface -->
  <g transform="translate(0,10)" filter="url(#innerShadow)">
    <path d="M512 240c-92 0-172 54-208 136 0 0-6 14-6 46 0 118 124 196 214 228 90-32 214-110 214-228 0-32-6-46-6-46C684 294 604 240 512 240z" fill="#ffffff"/>
    <!-- subtle tint to make it blend with the blue background -->
    <path d="M512 272c-78 0-145 46-176 116 0 0-4 10-4 34 0 90 96 150 176 174 80-24 176-84 176-174 0-24-4-34-4-34C657 318 590 272 512 272z" fill="#0b1220" fill-opacity="0.06"/>
    <!-- glossy highlight -->
    <path d="M296 300 C360 220, 420 200, 512 200 C604 200, 664 220, 728 300 L728 320 C660 240, 596 220, 512 220 C428 220, 364 240, 296 320 Z" fill="#ffffff" opacity="0.18"/>
  </g>

  <!-- keyhole (detailed) -->
  <g transform="translate(0,24)">
    <!-- outer lock body -->
    <rect x="462" y="420" width="100" height="144" rx="28" ry="28" fill="#021025" opacity="0.95"/>
    <!-- circular head of keyhole -->
    <circle cx="512" cy="380" r="36" fill="#021025" opacity="0.95"/>

    <!-- inner cutouts (white) create the keyhole shape) -->
    <circle cx="512" cy="380" r="12" fill="#ffffff"/>
    <rect x="494" y="440" width="36" height="56" rx="10" ry="10" fill="#ffffff"/>

    <!-- small inner shadow on keyhole for depth -->
    <ellipse cx="512" cy="380" rx="22" ry="9" fill="#000" opacity="0.08"/>
    <rect x="494" y="440" width="36" height="8" rx="4" ry="4" fill="#000" opacity="0.06"/>
  </g>

  <!-- rim stroke for crisp edge -->
  <circle cx="512" cy="512" r="460" fill="none" stroke="#000000" stroke-opacity="0.06" stroke-width="2"/>

  <!-- final sheen using mask for natural lighting -->
  <g mask="url(#sheenMask)">
    <path d="M120 140 C220 40, 420 40, 620 140 L620 80 C420 0, 220 0, 120 100 Z" fill="#ffffff" opacity="0.06"/>
  </g>

</svg>